HIERARCHY
ROOT Hips
{
	OFFSET -0.001795 -0.223333 0.028219
	CHANNELS 6 Xposition Yposition Zposition Zrotation Yrotation Xrotation 
	JOINT LeftUpLeg
	{
		OFFSET 0.069520 -0.091406 -0.006815
		CHANNELS 3 Zrotation Yrotation Xrotation
		JOINT LeftLeg
		{
			OFFSET 0.034277 -0.375199 -0.004496
			CHANNELS 3 Zrotation Yrotation Xrotation
			JOINT LeftFoot
			{
				OFFSET -0.013596 -0.397961 -0.043693
				CHANNELS 3 Zrotation Yrotation Xrotation
				JOINT LeftToe
				{
					OFFSET 0.026358 -0.055791 0.119288
					CHANNELS 3 Zrotation Yrotation Xrotation
					End Site
					{
						OFFSET 0.000000 0.000000 0.000000
					}
				}
			}
		}
	}
	JOINT RightUpLeg
	{
		OFFSET -0.067670 -0.090522 -0.004320
		CHANNELS 3 Zrotation Yrotation Xrotation
		JOINT RightLeg
		{
			OFFSET -0.038290 -0.382569 -0.008850
			CHANNELS 3 Zrotation Yrotation Xrotation
			JOINT RightFoot
			{
				OFFSET 0.015774 -0.398415 -0.042312
				CHANNELS 3 Zrotation Yrotation Xrotation
				JOINT RightToe
				{
					OFFSET -0.025372 -0.048144 0.123348
					CHANNELS 3 Zrotation Yrotation Xrotation
					End Site
					{
						OFFSET 0.000000 0.000000 0.000000
					}
				}
			}
		}
	}
	JOINT Spine
	{
		OFFSET -0.002533 0.108963 -0.026696
		CHANNELS 3 Zrotation Yrotation Xrotation
		JOINT Spine1
		{
			OFFSET 0.005487 0.135180 0.001092
			CHANNELS 3 Zrotation Yrotation Xrotation
			JOINT Spine2
			{
				OFFSET 0.001457 0.052922 0.025425
				CHANNELS 3 Zrotation Yrotation Xrotation
				JOINT Neck
				{
					OFFSET -0.002778 0.213870 -0.042857
					CHANNELS 3 Zrotation Yrotation Xrotation
					JOINT Head
					{
						OFFSET 0.005152 0.064970 0.051349
						CHANNELS 3 Zrotation Yrotation Xrotation
						End Site
						{
							OFFSET 0.000000 0.000000 0.000000
						}
					}
				}
				JOINT LeftShoulder
				{
					OFFSET 0.078845 0.121749 -0.034090
					CHANNELS 3 Zrotation Yrotation Xrotation
					JOINT LeftArm
					{
						OFFSET 0.090977 0.030469 -0.008868
						CHANNELS 3 Zrotation Yrotation Xrotation
						JOINT LeftForeArm
						{
							OFFSET 0.259612 -0.012772 -0.027456
							CHANNELS 3 Zrotation Yrotation Xrotation
							JOINT LeftHand
							{
								OFFSET 0.249234 0.008986 -0.001171
								CHANNELS 3 Zrotation Yrotation Xrotation
								End Site
								{
									OFFSET 0.000000 0.000000 0.000000
								}
							}
						}
					}
				}
				JOINT RightShoulder
				{
					OFFSET -0.081759 0.118833 -0.038615
					CHANNELS 3 Zrotation Yrotation Xrotation
					JOINT RightArm
					{
						OFFSET -0.096012 0.032551 -0.009143
						CHANNELS 3 Zrotation Yrotation Xrotation
						JOINT RightForeArm
						{
							OFFSET -0.253742 -0.013329 -0.021401
							CHANNELS 3 Zrotation Yrotation Xrotation
							JOINT RightHand
							{
								OFFSET -0.255298 0.007772 -0.005559
								CHANNELS 3 Zrotation Yrotation Xrotation
								End Site
								{
									OFFSET 0.000000 0.000000 0.000000
								}
							}
						}
					}
				}
			}
		}
	}
}
MOTION
Frames: 16
Frame Time: 0.050000
0.126175 0.874950 -0.054453 -2.173545 -0.755061 -9.363553 5.674455 -0.701061 -18.021425 -11.507874 4.733989 46.377995 1.522358 4.709425 4.096024 0.000000 0.000000 0.000000 -2.171673 1.852991 -22.166237 9.762378 -3.152106 44.602858 -18.938334 -38.758193 8.661242 0.000000 0.000000 0.000000 -3.150960 -0.460754 34.099793 5.547630 -1.591058 -14.825551 -0.454768 5.381704 26.799057 4.500136 -0.681703 -22.094492 0.000000 0.000000 0.000000 -36.220954 -16.099228 6.789985 -31.554250 -10.121853 -2.343138 -7.072363 -43.955884 4.379979 0.000000 0.000000 0.000000 17.355502 13.545108 7.182249 16.917525 2.361277 -2.488653 -59.096083 24.681698 -11.621757 0.000000 0.000000 0.000000 
0.126828 0.886317 -0.054510 -2.499921 -0.281326 -8.221613 5.217553 -0.791470 -17.747208 -10.721739 3.964994 43.513501 1.828705 5.744280 5.438274 0.000000 0.000000 0.000000 -1.675472 1.886722 -21.638041 9.224128 -2.845381 41.556840 -18.998304 -38.300929 10.295829 0.000000 0.000000 0.000000 -3.553168 -0.387554 32.860374 5.433901 -1.433484 -15.949303 -1.304321 4.058247 27.191912 5.425411 -1.292219 -23.643119 0.000000 0.000000 0.000000 -35.663468 -16.183079 7.393213 -31.285069 -12.633505 -1.924838 -5.559635 -43.083517 3.742511 0.000000 0.000000 0.000000 15.422374 12.688545 6.309920 15.844993 2.707031 -2.277812 -59.652057 21.543109 -10.199476 0.000000 0.000000 0.000000 
0.127270 0.900961 -0.054954 -2.838995 0.369983 -7.207335 4.978180 -0.797517 -16.536201 -9.933460 3.133827 38.853253 1.585361 6.100912 7.859107 0.000000 0.000000 0.000000 -1.098357 1.864888 -20.462023 8.630365 -2.509321 37.631883 -19.052555 -37.698460 12.382534 0.000000 0.000000 0.000000 -3.961873 -0.325375 31.404815 5.194493 -1.227285 -17.203150 -1.771466 3.087902 27.902699 6.379779 -1.851460 -24.916185 0.000000 0.000000 0.000000 -34.501754 -16.769695 8.106855 -31.322351 -14.903246 -1.542072 -2.751756 -43.878608 2.742292 0.000000 0.000000 0.000000 12.994021 12.625249 5.906992 16.391878 4.297049 -2.202341 -58.414513 18.239015 -8.132509 0.000000 0.000000 0.000000 
0.127884 0.915235 -0.055541 -2.979374 0.731107 -5.928574 4.453004 -0.833141 -15.462986 -9.032346 2.471053 34.806667 1.448416 6.080687 8.474463 0.000000 0.000000 0.000000 -0.514297 1.876757 -19.615086 7.838759 -2.037327 33.450308 -19.443259 -37.434044 15.004112 0.000000 0.000000 0.000000 -3.733260 -0.394110 30.328862 4.560888 -0.947258 -17.934508 -1.733224 2.588109 27.549439 6.221919 -1.937324 -23.779209 0.000000 0.000000 0.000000 -33.184594 -16.749037 8.164717 -30.876907 -17.406015 -1.017388 -1.498444 -46.853671 2.444264 0.000000 0.000000 0.000000 11.573219 13.154756 5.945275 16.114923 6.124196 -1.984582 -57.342121 14.350975 -5.925826 0.000000 0.000000 0.000000 
0.129547 0.925817 -0.056442 -3.367162 0.342713 -4.764455 4.476773 -0.806137 -15.072405 -8.351495 2.127953 31.793465 1.093196 5.971467 10.187223 0.000000 0.000000 0.000000 -0.162826 1.879940 -18.922152 7.626915 -1.781586 30.335054 -18.270186 -35.723848 15.115758 0.000000 0.000000 0.000000 -3.243380 -0.466174 29.163805 4.411284 -0.836374 -18.900460 -1.198096 3.018613 28.143522 6.509985 -2.114363 -23.488658 0.000000 0.000000 0.000000 -31.381885 -15.910374 7.441262 -30.602906 -18.931914 -0.749091 -2.462341 -53.646929 3.365611 0.000000 0.000000 0.000000 9.816209 12.735604 5.608950 16.255222 9.196770 -1.781323 -56.145200 12.046098 -4.463675 0.000000 0.000000 0.000000 
0.133025 0.931085 -0.057857 -3.540655 0.615511 -3.848840 4.166862 -0.876825 -15.376617 -7.734064 1.816342 30.852864 0.524830 4.930429 9.860043 0.000000 0.000000 0.000000 0.161565 1.907835 -18.769175 7.289561 -1.606057 27.948280 -19.003397 -36.352711 16.600951 0.000000 0.000000 0.000000 -2.461839 -0.662742 28.433941 4.367277 -0.783120 -19.231335 -0.192647 3.565805 28.203147 5.958053 -1.810606 -22.168313 0.000000 0.000000 0.000000 -29.320266 -15.566828 6.843751 -29.418228 -20.783849 -0.358675 0.157303 -62.708393 2.357110 0.000000 0.000000 0.000000 9.181149 13.140467 5.813115 16.461993 11.221705 -1.657892 -57.251315 9.385909 -2.995840 0.000000 0.000000 0.000000 
0.137635 0.930101 -0.059825 -3.222716 0.445538 -4.161825 3.443813 -0.985916 -15.699502 -7.847918 1.927952 32.041666 0.898951 5.458212 9.578369 0.000000 0.000000 0.000000 -0.096813 1.878846 -18.837270 7.129499 -1.539807 28.488361 -19.345020 -36.868041 16.500162 0.000000 0.000000 0.000000 -1.727038 -0.856025 29.267132 4.648745 -0.866305 -19.377190 0.759084 4.417226 28.337265 5.634457 -1.664272 -20.769826 0.000000 0.000000 0.000000 -28.036567 -14.943605 6.108824 -26.126938 -21.686468 -0.278232 11.098319 -72.184626 -5.518093 0.000000 0.000000 0.000000 9.704279 13.424348 6.100922 15.536409 11.990086 -1.589064 -58.469766 8.986203 -2.800899 0.000000 0.000000 0.000000 
0.142450 0.927131 -0.062187 -2.922202 0.657758 -4.307238 2.926061 -1.142929 -16.881847 -7.843392 1.954996 33.761999 0.313177 4.780373 10.514234 0.000000 0.000000 0.000000 -0.330044 1.865220 -19.140993 7.166288 -1.583605 28.736810 -20.738785 -38.635829 17.043553 0.000000 0.000000 0.000000 -0.990416 -1.081991 29.933755 4.928699 -0.968429 -19.005628 1.596436 5.054703 28.349099 4.856010 -1.130647 -19.868520 0.000000 0.000000 0.000000 -27.245580 -13.761559 5.060409 -22.823931 -22.204816 -0.291680 45.904378 -76.890623 -34.632905 0.000000 0.000000 0.000000 10.433211 13.567037 6.381076 15.176573 12.534078 -1.576075 -60.482936 7.632305 -2.062484 0.000000 0.000000 0.000000 
0.146203 0.925343 -0.064735 -2.262324 1.092209 -4.601673 1.644904 -1.395604 -17.557895 -7.377827 1.730713 34.861351 0.038414 4.699663 11.574991 0.000000 0.000000 0.000000 -1.153724 1.763135 -19.631880 7.363091 -1.739677 29.869015 -21.552635 -39.608890 17.420229 0.000000 0.000000 0.000000 -0.173300 -1.363533 30.806697 5.328669 -1.167514 -17.867024 1.953207 5.890801 27.648954 4.475956 -0.831304 -18.743797 0.000000 0.000000 0.000000 -27.281096 -13.133071 4.219866 -20.128895 -22.932631 -0.200749 74.146276 -72.079956 -55.414040 0.000000 0.000000 0.000000 11.349433 13.478157 6.627137 15.552867 12.448872 -1.615709 -64.028147 6.165611 -1.129735 0.000000 0.000000 0.000000 
0.148187 0.928317 -0.067214 -1.867110 1.692733 -4.433369 1.003845 -1.505463 -17.534484 -6.921138 1.438469 34.507541 -0.977001 3.037978 11.479388 0.000000 0.000000 0.000000 -1.473224 1.697033 -19.705443 7.535929 -1.876930 29.831889 -22.042354 -40.235247 17.534182 0.000000 0.000000 0.000000 0.173186 -1.512404 30.975099 5.383033 -1.179667 -17.665785 2.145904 6.111531 27.841639 4.912861 -1.167310 -17.997934 0.000000 0.000000 0.000000 -26.749828 -12.876574 3.888828 -18.192352 -23.487571 -0.251889 85.256277 -64.114591 -58.073002 0.000000 0.000000 0.000000 12.550818 12.566828 6.509300 16.152841 12.726443 -1.684108 -67.040570 4.683457 -0.128160 0.000000 0.000000 0.000000 
0.148543 0.935421 -0.069202 -1.698521 2.283017 -4.026025 0.759557 -1.501118 -16.960543 -6.544555 1.171609 32.281291 -1.936070 2.111109 13.036264 0.000000 0.000000 0.000000 -1.651461 1.644320 -19.643778 7.439665 -1.850970 28.480361 -22.728208 -40.297686 19.842219 0.000000 0.000000 0.000000 0.480479 -1.623555 30.567645 5.218698 -1.147230 -17.152726 2.185192 6.090797 27.313934 4.657111 -1.022898 -17.381443 0.000000 0.000000 0.000000 -26.197132 -12.365303 3.460748 -17.410570 -24.754506 -0.160795 86.599667 -56.507829 -52.188189 0.000000 0.000000 0.000000 13.068191 11.710901 6.247722 17.701876 12.802502 -1.761356 -70.570904 3.287942 1.054395 0.000000 0.000000 0.000000 
0.147795 0.943364 -0.070476 -1.570662 2.371514 -3.681815 0.492931 -1.454774 -16.069872 -5.935040 0.908618 29.682117 -2.686824 1.670227 14.943796 0.000000 0.000000 0.000000 -1.533180 1.630383 -19.250923 7.202166 -1.692074 26.589444 -23.340730 -40.275263 22.067168 0.000000 0.000000 0.000000 0.272348 -1.563040 30.379088 5.369694 -1.165433 -17.476482 2.120007 6.080875 27.186801 5.172060 -1.433652 -17.047644 0.000000 0.000000 0.000000 -25.632323 -12.547371 3.577121 -15.801028 -26.136251 -0.197206 84.810081 -49.669932 -44.657859 0.000000 0.000000 0.000000 12.474561 10.802565 5.736901 18.843650 13.000819 -1.791194 -72.297027 2.681441 1.719506 0.000000 0.000000 0.000000 
0.146272 0.950362 -0.071283 -1.590059 2.738700 -3.408435 0.455293 -1.336724 -14.735173 -4.994483 0.532423 26.726619 -4.196522 -0.221173 15.949746 0.000000 0.000000 0.000000 -1.528352 1.572711 -18.650940 6.976636 -1.574718 24.695382 -23.402181 -39.670137 23.968740 0.000000 0.000000 0.000000 -0.072519 -1.472721 29.881846 5.071157 -1.001560 -18.235454 2.010354 5.265164 27.483905 4.933591 -1.368895 -17.091420 0.000000 0.000000 0.000000 -24.513606 -12.051956 3.565015 -14.141098 -27.933265 -0.342928 82.185539 -45.916768 -39.552567 0.000000 0.000000 0.000000 11.363979 10.085635 5.161628 19.471666 12.472756 -1.861162 -71.567137 3.122697 1.372366 0.000000 0.000000 0.000000 
0.144208 0.955334 -0.072288 -1.651372 2.811679 -3.146635 0.554277 -1.230122 -13.734216 -4.331864 0.329610 24.062261 -5.268891 -1.200672 17.443496 0.000000 0.000000 0.000000 -1.343461 1.572937 -18.310527 6.407259 -1.330230 23.041437 -23.343478 -38.921931 25.947639 0.000000 0.000000 0.000000 -0.604318 -1.339709 29.879383 5.221273 -0.968140 -19.279435 1.721900 5.239960 27.569398 4.515645 -1.042163 -17.254998 0.000000 0.000000 0.000000 -23.261822 -11.590389 3.344104 -11.947111 -29.528049 -0.572156 80.045859 -43.991972 -36.731651 0.000000 0.000000 0.000000 10.097353 9.452814 4.707286 19.393121 12.047720 -1.892646 -70.413096 2.841914 1.596169 0.000000 0.000000 0.000000 
0.141970 0.958776 -0.074247 -1.985835 2.824117 -2.981643 1.162107 -1.093118 -12.958158 -4.082610 0.272662 22.203241 -6.086458 -2.275023 17.790287 0.000000 0.000000 0.000000 -0.780377 1.618882 -17.838023 6.203817 -1.218875 21.465592 -23.464576 -38.746041 26.923546 0.000000 0.000000 0.000000 -1.032054 -1.228357 29.767115 5.152514 -0.903310 -19.881396 1.920967 4.966904 27.593312 4.382759 -0.996885 -17.218696 0.000000 0.000000 0.000000 -21.607217 -11.520679 3.458358 -9.920008 -30.427372 -0.871453 77.675416 -41.112021 -33.096182 0.000000 0.000000 0.000000 8.939550 8.863886 4.266017 18.449749 12.058671 -1.824735 -68.115233 2.101658 1.904838 0.000000 0.000000 0.000000 
0.140183 0.961240 -0.077198 -2.073206 2.601112 -2.784939 1.325171 -1.031527 -12.471246 -4.066625 0.301104 20.831695 -5.821696 -1.943824 17.693424 0.000000 0.000000 0.000000 -0.488480 1.669313 -17.850210 5.930361 -1.103411 20.981995 -22.754673 -38.001441 26.692911 0.000000 0.000000 0.000000 -1.601583 -1.078209 30.161047 5.748473 -1.013857 -20.766740 1.639258 5.100978 27.383554 4.104219 -0.723576 -17.734903 0.000000 0.000000 0.000000 -20.238459 -11.315587 3.393163 -7.689963 -31.636380 -1.218581 75.323344 -39.543629 -30.705490 0.000000 0.000000 0.000000 8.318317 8.801971 4.160950 16.498436 12.829665 -1.653665 -66.077232 1.199155 2.256065 0.000000 0.000000 0.000000 
